<svg width="57" height="57" viewBox="0 0 57 57" fill="none" xmlns="http://www.w3.org/2000/svg">
<path d="M28.5 57C36.0587 57 43.3078 53.9973 48.6525 48.6525C53.9973 43.3078 57 36.0587 57 28.5C57 20.9413 53.9973 13.6922 48.6525 8.34746C43.3078 3.00267 36.0587 0 28.5 0C20.9413 0 13.6922 3.00267 8.34746 8.34746C3.00267 13.6922 0 20.9413 0 28.5C0 36.0587 3.00267 43.3078 8.34746 48.6525C13.6922 53.9973 20.9413 57 28.5 57ZM31.8131 23.4697L28.2506 40.2313C28.0012 41.4426 28.3539 42.1301 29.3336 42.1301C30.0248 42.1301 31.0686 41.8807 31.7775 41.2537L31.464 42.7358C30.4416 43.9684 28.1865 44.8661 26.2449 44.8661C23.7405 44.8661 22.6753 43.3627 23.3664 40.1672L25.9956 27.8124C26.2236 26.7686 26.0169 26.391 24.9731 26.1381L23.3664 25.8495L23.6586 24.4922L31.8167 23.4697H31.8131ZM28.5 19.5938C27.5552 19.5938 26.649 19.2184 25.9809 18.5503C25.3128 17.8822 24.9375 16.9761 24.9375 16.0312C24.9375 15.0864 25.3128 14.1803 25.9809 13.5122C26.649 12.8441 27.5552 12.4688 28.5 12.4688C29.4448 12.4688 30.351 12.8441 31.0191 13.5122C31.6872 14.1803 32.0625 15.0864 32.0625 16.0312C32.0625 16.9761 31.6872 17.8822 31.0191 18.5503C30.351 19.2184 29.4448 19.5938 28.5 19.5938Z" fill="#C60606"/>
</svg>
